<svg xmlns="http://www.w3.org/2000/svg" viewBox="0 0 24 24">
  <defs>
    <linearGradient id="slateGrad" x1="0%" y1="0%" x2="100%" y2="100%">
      <stop offset="0%" stop-color="#818CF8" />
      <stop offset="100%" stop-color="#4F46E5" />
    </linearGradient>
  </defs>
  <path fill="url(#slateGrad)" d="M11.644 1.59a.75.75 0 0 1 .712 0l9.75 5.25a.75.75 0 0 1 0 1.32l-9.75 5.25a.75.75 0 0 1-.712 0l-9.75-5.25a.75.75 0 0 1 0-1.32l9.75-5.25Z"/>
  <path fill="url(#slateGrad)" opacity="0.8" d="m3.265 10.602 7.668 4.129a2.25 2.25 0 0 0 2.134 0l7.668-4.13 1.37.739a.75.75 0 0 1 0 1.32l-9.75 5.25a.75.75 0 0 1-.71 0l-9.75-5.25a.75.75 0 0 1 0-1.32l1.37-.738Z"/>
  <path fill="url(#slateGrad)" opacity="0.6" d="m10.933 19.231-7.668-4.13-1.37.739a.75.75 0 0 0 0 1.32l9.75 5.25c.221.12.489.12.71 0l9.75-5.25a.75.75 0 0 0 0-1.32l-1.37-.738-7.668 4.13a2.25 2.25 0 0 1-2.134-.001Z"/>
</svg>
